<svg width="76" height="76" viewBox="0 0 76 76" fill="none" xmlns="http://www.w3.org/2000/svg">
<g clip-path="url(#clip0_1_142)">
<path d="M38 76C58.9868 76 76 58.9868 76 38C76 17.0132 58.9868 0 38 0C17.0132 0 0 17.0132 0 38C0 58.9868 17.0132 76 38 76Z" fill="#FFF3E0"/>
<path d="M53.2007 56.1143C63.2048 47.7192 64.5093 32.8037 56.1142 22.7995C47.7191 12.7953 32.8035 11.4909 22.7993 19.886C12.7952 28.2811 11.4907 43.1966 19.8858 53.2008C28.2809 63.205 43.1965 64.5094 53.2007 56.1143Z" fill="white"/>
<path d="M41.4558 14.6721C36.6809 18.2192 32.9065 23.4034 31.042 29.7699C38.5909 23.4488 47.6859 20.8568 55.0983 22.2665L55.0074 22.1755C51.7786 17.8554 46.8673 15.1269 41.4558 14.6721Z" fill="#FF9C08"/>
<path d="M20.81 44.9128C22.3561 39.183 25.8577 33.7714 31.0873 29.7241C27.9496 39.0011 29.7686 54.8264 33.7704 61.2384C28.3134 59.9651 23.3111 57.1001 19.4457 53.0074L18.991 52.5526L20.81 44.9128Z" fill="#FF9C08"/>
<path d="M22.8111 19.9016C17.9452 23.4032 14.8984 28.8602 14.5801 34.8175L30.7237 29.4059L22.8111 19.9016Z" fill="#FF9C08"/>
<path d="M61.2829 38.1372C53.7795 32.6802 41.2739 28.5875 31.042 29.7244L30.7236 29.406L53.1883 56.0999L54.5071 54.7811C58.9637 50.4155 61.4193 44.3673 61.2829 38.1372Z" fill="#FF9C08"/>
<path d="M31.4967 55.3269C30.9055 55.3269 30.3598 54.9176 30.1779 54.3265C27.8132 45.8226 27.6768 36.4548 29.7686 29.3606C30.8145 25.7226 32.4971 22.403 34.7254 19.4471C35.1801 18.8559 36.0442 18.7195 36.6354 19.1742C37.2265 19.629 37.363 20.493 36.9082 21.0842C34.8618 23.7672 33.3611 26.814 32.4062 30.0882C30.4507 36.7276 30.6326 45.5043 32.8609 53.5534C33.0428 54.281 32.6335 55.0086 31.9059 55.236C31.724 55.3269 31.6331 55.3269 31.4967 55.3269Z" fill="#090909"/>
<path d="M57.1446 21.9026C48.277 11.3523 32.4971 9.98806 21.9014 18.8557C16.8082 23.1304 13.6704 29.1786 13.0793 35.8179C12.4881 42.4573 14.5345 48.9602 18.8546 54.0534C23.1293 59.1921 29.1774 62.3299 35.8168 62.8756C36.5444 62.9211 37.3175 62.9666 38.0451 62.9666C43.9114 62.9666 49.5503 60.9202 54.0978 57.1003C59.2365 52.8256 62.3743 46.7774 62.92 40.1381C63.4657 33.4987 61.4648 27.0412 57.1446 21.9026ZM60.146 35.727C53.0519 31.2249 43.684 28.4055 35.453 28.2236C41.6831 24.1763 48.6863 22.4937 54.8709 23.6306C54.9163 23.6306 54.9618 23.6306 55.0073 23.6306C55.0073 23.6761 55.0528 23.6761 55.0528 23.7216C58.0541 27.2231 59.7367 31.4068 60.146 35.727ZM53.3247 54.1444L41.8195 40.4109C41.3193 39.8197 40.4553 39.7743 39.9096 40.229C39.3184 40.7292 39.2729 41.5933 39.7277 42.139L51.2329 55.8724C46.8673 59.1012 41.5012 60.6473 36.0442 60.1471C30.1324 59.6469 24.7209 56.8274 20.901 52.2799C20.901 52.2344 20.8555 52.2344 20.8555 52.189C20.8555 52.1435 20.8555 52.0525 20.8555 52.0071C20.8555 48.46 21.8105 44.6401 23.6295 41.0021C23.9933 40.32 23.7204 39.5014 23.0383 39.1831C22.3562 38.8648 21.5376 39.0921 21.2193 39.7743C19.7641 42.6847 18.8091 45.6405 18.3999 48.5964C16.308 44.7765 15.3985 40.4564 15.8078 36.0453C16.308 30.1335 19.1275 24.722 23.675 20.9021C27.8587 17.446 32.9064 15.7179 37.9996 15.7179C42.9564 15.7179 47.8222 17.355 51.8695 20.5383C44.6845 20.3109 36.9537 23.1304 30.4962 28.451C26.4489 28.9512 22.6745 30.179 19.2184 32.1344C18.5818 32.4982 18.3089 33.3168 18.7182 33.9989C19.082 34.6356 19.9005 34.9084 20.5827 34.4991C23.8569 32.6801 27.4494 31.4978 31.2693 31.0885C41.4557 29.9516 53.5066 34.2263 60.2824 39.0467C59.9641 44.6401 57.6449 50.0971 53.3247 54.1444Z" fill="#090909"/>
<path d="M27.8133 27.2686C27.404 27.2686 27.0402 27.0867 26.7674 26.7684L24.6755 24.2217C24.2208 23.6306 24.2663 22.7665 24.8574 22.3118C25.4486 21.857 26.3126 21.9025 26.7674 22.4937L28.8593 25.0403C29.314 25.6315 29.2685 26.4955 28.6774 26.9503C28.4045 27.1776 28.1316 27.2686 27.8133 27.2686Z" fill="#090909"/>
<path d="M33.6466 32.8932C35.5704 31.2787 35.8213 28.4104 34.2068 26.4865C32.5924 24.5626 29.724 24.3117 27.8001 25.9262C25.8763 27.5406 25.6254 30.409 27.2399 32.3329C28.8543 34.2568 31.7227 34.5076 33.6466 32.8932Z" fill="white"/>
<path d="M30.7237 35.3176C30.5418 35.3176 30.3599 35.3176 30.178 35.2721C28.5863 35.1357 27.1766 34.4081 26.1761 33.1802C25.1757 31.9524 24.6755 30.4517 24.8119 28.8601C24.9483 27.2685 25.6759 25.8587 26.9037 24.8583C28.1316 23.8578 29.6322 23.3576 31.2239 23.494C32.8155 23.6305 34.2252 24.3581 35.2257 25.5859C37.3175 28.087 36.9992 31.816 34.4981 33.9078C33.4522 34.8173 32.1334 35.3176 30.7237 35.3176ZM30.7237 26.2225C29.9961 26.2225 29.2684 26.4954 28.6773 26.9501C28.0406 27.4959 27.6313 28.2689 27.5404 29.133C27.4494 29.997 27.7223 30.8155 28.268 31.4522C29.4049 32.8164 31.4058 32.9529 32.77 31.8615C34.1343 30.7246 34.2707 28.7237 33.1793 27.3594C32.6336 26.7228 31.8605 26.3135 30.9965 26.2225C30.9056 26.2225 30.8146 26.2225 30.7237 26.2225Z" fill="#090909"/>
</g>
<defs>
<clipPath id="clip0_1_142">
<rect width="76" height="76" fill="white"/>
</clipPath>
</defs>
</svg>
