<svg width="76" height="76" viewBox="0 0 76 76" fill="none" xmlns="http://www.w3.org/2000/svg">
<g clip-path="url(#clip0_1_158)">
<path d="M38 76C58.9868 76 76 58.9868 76 38C76 17.0132 58.9868 0 38 0C17.0132 0 0 17.0132 0 38C0 58.9868 17.0132 76 38 76Z" fill="#FFF3E0"/>
<path d="M55.8415 34.199V46.3806C55.8415 47.8112 55.1913 49.1984 54.1075 50.1088C45.0472 57.3917 31.7385 57.6084 22.8949 50.1521C21.8112 49.1984 21.1609 47.8112 21.1609 46.3806V34.1123" fill="white"/>
<path d="M14.6583 31.2078L38.9348 42.0455L62.3442 31.2078L38.9348 20.3701L14.6583 31.2078Z" fill="#FF9C08"/>
<path d="M38.2844 56.915C32.4321 56.915 26.6231 55.0076 22.0712 51.1494C20.684 49.9789 19.9037 48.2449 19.9037 46.3808V34.1125C19.9037 33.3756 20.4672 32.812 21.2042 32.812C21.9412 32.812 22.5047 33.3756 22.5047 34.1125V46.3808C22.5047 47.4646 22.9816 48.4616 23.7619 49.1552C31.9552 56.0914 44.657 56.048 53.3272 49.1119C54.1508 48.4616 54.5843 47.4646 54.5843 46.3808V34.1992C54.5843 33.4623 55.1479 32.8987 55.8849 32.8987C56.6218 32.8987 57.1854 33.4623 57.1854 34.1992V46.3808C57.1854 48.2449 56.3617 49.9789 54.9311 51.106C50.0759 55.0076 44.1368 56.915 38.2844 56.915Z" fill="#090909"/>
<path d="M38.9348 43.346C38.7614 43.346 38.588 43.3026 38.4146 43.2159L14.1381 32.3782C13.6612 32.2048 13.3578 31.728 13.3578 31.2078C13.3578 30.6875 13.6612 30.2107 14.1381 30.0373L38.4146 19.1996C38.7614 19.0262 39.1515 19.0695 39.4983 19.1996L62.9078 30.0373C63.3846 30.254 63.6447 30.7309 63.6447 31.2078C63.6447 31.6846 63.3413 32.1615 62.9078 32.3782L39.4983 43.2159C39.3249 43.3026 39.1082 43.346 38.9348 43.346ZM17.8663 31.2078L38.9348 40.6149L59.2663 31.2078L38.9348 21.8006L17.8663 31.2078ZM62.3442 45.0367C61.6072 45.0367 61.0437 44.4731 61.0437 43.7361V35.5428C61.0437 34.8059 61.6072 34.2423 62.3442 34.2423C63.0812 34.2423 63.6447 34.8059 63.6447 35.5428V43.7361C63.6447 44.4297 63.0812 45.0367 62.3442 45.0367Z" fill="#090909"/>
</g>
<defs>
<clipPath id="clip0_1_158">
<rect width="76" height="76" fill="white"/>
</clipPath>
</defs>
</svg>
