<svg width="172" height="172" viewBox="0 0 172 172" fill="none" xmlns="http://www.w3.org/2000/svg">
<g clip-path="url(#clip0_1_272)">
<path d="M86 172C133.496 172 172 133.496 172 86C172 38.5035 133.496 0 86 0C38.5035 0 0 38.5035 0 86C0 133.496 38.5035 172 86 172Z" fill="#FFF3E0"/>
<mask id="mask0_1_272" style="mask-type:alpha" maskUnits="userSpaceOnUse" x="0" y="0" width="172" height="172">
<path d="M172 86C172 133.496 133.496 172 86 172C38.5035 172 0 133.496 0 86C0 38.5035 38.5035 0 86 0C133.496 0 172 38.5035 172 86Z" fill="#F0ECE8"/>
</mask>
<g mask="url(#mask0_1_272)">
<path d="M90.4475 92.7976C87.6952 93.8297 84.5988 93.8297 81.7605 92.7976L38.5832 76.1116C35.6588 74.9934 35.6588 70.7789 38.5832 69.6608L81.8465 53.0607C84.5988 52.0286 87.6952 52.0286 90.5336 53.0607L133.797 69.6608C135.345 70.2628 136.205 71.639 136.119 73.0152V74.8214L90.4475 92.7976Z" fill="#FF9C08"/>
<path d="M134.657 67.3382L91.3937 50.6522C88.0393 49.362 84.2548 49.362 80.9004 50.6522L37.6371 67.3382C35.3148 68.1984 33.7666 70.4346 33.7666 72.9289C33.7666 75.4232 35.3148 77.6595 37.6371 78.5196L49.1625 82.9922V103.033C49.1625 120.579 68.9449 122.815 86.1471 122.815C103.349 122.815 123.132 120.579 123.132 103.033V86.2606C123.132 84.2823 122.185 82.3901 120.551 81.272C118.917 80.1538 116.853 79.8958 114.961 80.5839L89.5015 90.3891C87.3512 91.2492 84.8569 91.2492 82.7066 90.3891L39.5293 73.703C39.0993 73.531 39.0132 73.187 39.0132 72.9289C39.0132 72.6709 39.0993 72.3269 39.5293 72.1548L82.7926 55.5548C84.9429 54.6947 87.4372 54.6947 89.5875 55.5548L132.851 72.1548C133.367 72.3269 133.539 72.7569 133.539 73.0149C133.539 73.101 133.539 73.101 133.539 73.187V85.8305C133.539 87.2927 134.657 88.4108 136.119 88.4108C137.581 88.4108 138.7 87.2927 138.7 85.8305V73.187C138.7 70.6066 137.151 68.2844 134.657 67.3382Z" fill="#090909"/>
<path d="M136.033 105.613C134.571 105.613 133.453 104.495 133.453 103.033V98.7322C133.453 97.27 134.571 96.1519 136.033 96.1519C137.495 96.1519 138.613 97.27 138.613 98.7322V103.033C138.613 104.495 137.495 105.613 136.033 105.613Z" fill="#090909"/>
<path d="M50.46 81.2527L47.1307 79.9312L47.0385 83.512L46.5266 103.383L46.5262 103.398L46.526 103.414C46.4062 112.417 49.6158 117.613 52.2719 119.454C55.0959 122.44 59.7775 124.582 65.1185 125.962C70.7004 127.404 77.3655 128.107 84.2854 127.914H84.2977H84.3101C94.3904 127.534 100.566 126.283 104.768 124.807C107.774 123.752 109.925 122.476 111.391 121.606C111.902 121.303 112.329 121.049 112.681 120.871L112.935 120.742L113.154 120.56C116.805 117.515 118.743 114.926 119.748 112.413C120.541 110.429 120.691 108.547 120.805 107.104C120.831 106.785 120.854 106.488 120.883 106.216L120.897 106.083L120.896 105.949C120.889 103.228 120.803 97.816 120.729 93.1385C120.707 91.7379 120.686 90.403 120.668 89.226C120.61 85.3802 116.707 82.7062 113.094 84.0891L85.7543 94.5525C85.169 94.7766 84.5209 94.7726 83.9384 94.5413L50.46 81.2527Z" fill="white" stroke="#090909" stroke-width="5"/>
</g>
</g>
<defs>
<clipPath id="clip0_1_272">
<rect width="172" height="172" fill="white"/>
</clipPath>
</defs>
</svg>
