<svg width="172" height="172" viewBox="0 0 172 172" fill="none" xmlns="http://www.w3.org/2000/svg">
<g clip-path="url(#clip0_1_242)">
<path d="M86 172C133.496 172 172 133.496 172 86C172 38.5035 133.496 0 86 0C38.5035 0 0 38.5035 0 86C0 133.496 38.5035 172 86 172Z" fill="#FFF3E0"/>
<mask id="mask0_1_242" style="mask-type:alpha" maskUnits="userSpaceOnUse" x="0" y="0" width="172" height="172">
<path d="M86 172C133.496 172 172 133.496 172 86C172 38.5035 133.496 0 86 0C38.5035 0 0 38.5035 0 86C0 133.496 38.5035 172 86 172Z" fill="#F0ECE8"/>
</mask>
<g mask="url(#mask0_1_242)">
<path d="M123.983 71.4467V58.5392C123.983 48.441 115.859 40.3169 105.761 40.3169C95.6629 40.3169 87.5388 48.441 87.5388 58.5392V71.4467" fill="#F08200"/>
<path d="M79.187 105.613C93.8635 105.613 105.761 93.7155 105.761 79.039C105.761 64.3624 93.8635 52.4648 79.187 52.4648C64.5104 52.4648 52.6127 64.3624 52.6127 79.039C52.6127 93.7155 64.5104 105.613 79.187 105.613Z" fill="#FF9C08"/>
<path d="M131.576 70.6875H40.4645L47.2219 124.747C47.6775 128.543 50.9423 131.429 54.7386 131.429H117.226C121.022 131.429 124.287 128.543 124.743 124.747L131.576 70.6875Z" fill="white"/>
<path d="M63.2424 118.521C62.1035 118.521 61.1165 117.686 60.9646 116.547L57.1683 86.1764C57.0164 84.9616 57.9276 83.8227 59.1424 83.6708C60.3572 83.519 61.4961 84.4301 61.6479 85.6449L65.4443 116.016C65.5961 117.23 64.685 118.369 63.4702 118.521C63.3943 118.521 63.3183 118.521 63.2424 118.521Z" fill="#090909"/>
<path d="M78.4277 118.521C77.1369 118.521 76.1499 117.534 76.1499 116.243V85.8725C76.1499 84.5818 77.1369 83.5947 78.4277 83.5947C79.7184 83.5947 80.7055 84.5818 80.7055 85.8725V116.243C80.7055 117.534 79.7184 118.521 78.4277 118.521Z" fill="#090909"/>
<path d="M93.613 118.521C92.3222 118.521 91.3352 117.534 91.3352 116.243V85.8725C91.3352 84.5818 92.3222 83.5947 93.613 83.5947C94.9037 83.5947 95.8908 84.5818 95.8908 85.8725V116.243C95.8908 117.534 94.9037 118.521 93.613 118.521Z" fill="#090909"/>
<path d="M108.798 118.521C108.722 118.521 108.646 118.521 108.494 118.521C107.28 118.369 106.369 117.23 106.52 116.016L110.317 85.6449C110.469 84.4301 111.607 83.519 112.822 83.6708C114.037 83.8227 114.948 84.9616 114.796 86.1764L111 116.547C110.924 117.686 109.937 118.521 108.798 118.521Z" fill="#090909"/>
<path d="M59.4461 59.2985H53.372C46.2349 59.2985 40.4645 53.5281 40.4645 46.391V40.3169H46.5386C53.6757 40.3169 59.4461 46.0873 59.4461 53.2244V59.2985Z" fill="#FF9C08"/>
<path d="M133.247 69.1689C132.791 68.7133 132.184 68.4096 131.576 68.4096H126.261V58.5392C126.261 47.2261 117.074 38.0391 105.761 38.0391C100.75 38.0391 95.8908 39.8613 92.1704 43.2021C91.2593 44.0372 91.1834 45.4798 92.0185 46.391C92.8537 47.3021 94.2963 47.378 95.2074 46.5428C98.0926 44.0372 101.813 42.5946 105.761 42.5946C112.671 42.5946 118.593 47.0743 120.795 53.2243L111.456 61.0447C110.469 61.8799 110.393 63.3225 111.152 64.2337C111.608 64.7651 112.215 65.0688 112.898 65.0688C113.43 65.0688 113.961 64.917 114.341 64.5374L121.63 58.3873C121.63 58.4632 121.63 58.4632 121.63 58.5392V68.4096H56.5609C60.661 60.0577 69.0129 54.7429 78.4277 54.7429C79.7185 54.7429 80.7055 53.7558 80.7055 52.4651C80.7055 51.1743 79.7185 50.1873 78.4277 50.1873C72.2777 50.1873 66.5073 52.0854 61.7239 55.5021V53.2243C61.7239 44.8724 54.8906 38.0391 46.5387 38.0391H40.4646C39.1738 38.0391 38.1868 39.0261 38.1868 40.3169V46.391C38.1868 54.7429 45.0201 61.5762 53.372 61.5762H55.422C53.9035 63.6262 52.5368 65.904 51.5498 68.4096H40.4646C39.7812 68.4096 39.1738 68.7133 38.7942 69.1689C38.4145 69.6244 38.1108 70.3078 38.1868 70.9911L44.9442 125.051C45.5516 129.986 49.8035 133.706 54.7387 133.706H117.226C122.161 133.706 126.413 129.986 127.021 125.051L133.778 70.9911C133.93 70.3078 133.702 69.7003 133.247 69.1689ZM42.7423 46.391V42.5946H46.5387C52.385 42.5946 57.1683 47.378 57.1683 53.2243V57.0206H53.372C47.5257 57.0206 42.7423 52.2373 42.7423 46.391ZM122.541 124.519C122.237 127.177 119.959 129.151 117.302 129.151H54.7387C52.0813 129.151 49.8035 127.177 49.4998 124.519L43.046 72.9652H128.995L122.541 124.519Z" fill="#090909"/>
</g>
</g>
<defs>
<clipPath id="clip0_1_242">
<rect width="172" height="172" fill="white"/>
</clipPath>
</defs>
</svg>
