<svg width="76" height="76" viewBox="0 0 76 76" fill="none" xmlns="http://www.w3.org/2000/svg">
<g clip-path="url(#clip0_1_116)">
<path d="M38 76C58.9868 76 76 58.9868 76 38C76 17.0132 58.9868 0 38 0C17.0132 0 0 17.0132 0 38C0 58.9868 17.0132 76 38 76Z" fill="#FFF3E0"/>
<path d="M45.295 22.3259C45.2924 22.3259 45.2898 22.3259 45.2871 22.3259C45.2861 22.3259 45.285 22.3259 45.284 22.3259C45.2829 22.3259 45.2819 22.3259 45.2808 22.3259C44.6755 22.327 44.0707 22.38 43.4754 22.4751C43.0522 22.5449 42.6364 22.6389 42.2295 22.7549C46.8332 24.0768 50.23 28.1645 50.23 33.0885C50.23 36.4485 48.602 37.761 46.135 41.384L37 53.1435L52.33 41.3835C54.7975 39.3885 56.425 36.4485 56.425 33.0885C56.425 27.1035 51.385 22.3259 45.295 22.3259Z" fill="#FF9C08"/>
<path d="M28.705 22.3259C32.065 22.3259 35.0575 23.7434 37 26.001C39.0475 23.7434 42.04 22.3259 45.295 22.3259C51.3855 22.3259 56.425 27.1035 56.425 33.0885C56.425 36.4485 54.85 39.4415 52.33 41.384L37 53.1435L21.9325 41.5935C19.255 39.5985 17.575 36.501 17.575 33.0885C17.575 27.156 22.51 22.3259 28.705 22.3259Z" fill="#FF9C08"/>
<path d="M28.7049 25.5283C24.3999 25.5283 20.9349 28.9408 20.9349 33.0878C20.9349 33.9803 21.6174 34.6628 22.5099 34.6628C23.4024 34.6628 24.0849 33.9803 24.0849 33.0878C24.0849 30.6728 26.1849 28.6783 28.7049 28.6783C29.5974 28.6783 30.2799 27.9958 30.2799 27.1033C30.2799 26.2108 29.5974 25.5283 28.7049 25.5283Z" fill="white"/>
<path d="M37 54.7185C36.685 54.7185 36.3175 54.6135 36.055 54.4035L20.9875 42.8535C17.8375 40.5435 16 36.9735 16 33.0885C16 26.2635 21.7225 20.751 28.705 20.751C31.8025 20.751 34.795 21.8535 37 23.796C39.31 21.8535 42.25 20.751 45.295 20.751C52.2775 20.751 58 26.2635 58 33.0885C58 36.7635 56.32 40.281 53.3275 42.6435L37.945 54.4035C37.6825 54.6135 37.315 54.7185 37 54.7185ZM28.705 23.901C23.455 23.901 19.15 28.0485 19.15 33.0885C19.15 35.976 20.515 38.601 22.8775 40.3335L37 51.201L51.385 40.176C53.59 38.4435 54.85 35.871 54.85 33.141C54.85 28.0485 50.545 23.9535 45.295 23.9535C42.565 23.9535 39.9925 25.1085 38.155 27.1035C37.84 27.4185 37.42 27.6285 37 27.6285C36.5275 27.6285 36.1075 27.4185 35.845 27.1035C34.06 25.056 31.4875 23.901 28.705 23.901Z" fill="#090909"/>
</g>
<defs>
<clipPath id="clip0_1_116">
<rect width="76" height="76" fill="white"/>
</clipPath>
</defs>
</svg>
