<svg width="76" height="76" viewBox="0 0 76 76" fill="none" xmlns="http://www.w3.org/2000/svg">
<g clip-path="url(#clip0_1_126)">
<path d="M38 76C58.9868 76 76 58.9868 76 38C76 17.0132 58.9868 0 38 0C17.0132 0 0 17.0132 0 38C0 58.9868 17.0132 76 38 76Z" fill="#FFF3E0"/>
<path d="M40.4454 38.2622C40.1912 38.5201 39.8882 38.7248 39.5541 38.8646C39.22 39.0043 38.8615 39.0763 38.4994 39.0763C38.1372 39.0763 37.7787 39.0043 37.4446 38.8646C37.1106 38.7248 36.8076 38.5201 36.5533 38.2622L26.8521 28.4226C25.8359 27.4452 25.1617 26.1664 24.9293 24.7758C24.6969 23.3852 24.9188 21.9567 25.562 20.7021C26.0722 19.7469 26.7971 18.9232 27.6795 18.2956C28.562 17.668 29.578 17.2537 30.6477 17.0853C31.7173 16.9168 32.8115 16.9987 33.8442 17.3247C34.8768 17.6506 35.8197 18.2117 36.5989 18.9637L38.4994 20.8114L40.4017 18.9637C41.1808 18.2117 42.1238 17.6506 43.1564 17.3247C44.1891 16.9987 45.2832 16.9168 46.3529 17.0853C47.4226 17.2537 48.4386 17.668 49.321 18.2956C50.2035 18.9232 50.9283 19.7469 51.4386 20.7021C52.0833 21.9577 52.3058 23.3878 52.0731 24.78C51.8403 26.1722 51.1647 27.4522 50.1466 28.4299L40.4454 38.2622Z" fill="#FF9C08" stroke="#090909" stroke-width="3" stroke-linecap="round" stroke-linejoin="round"/>
<path d="M19.1864 49.9302L32.2572 49.6643L32.5667 59.1551C32.5667 59.1551 30.385 58.1751 28.0791 58.1751C25.7732 58.1751 23.2305 59.4646 23.2305 59.4646L19.1864 49.9302Z" fill="white"/>
<path d="M23.4665 58L19.7967 53.6614C18.6336 52.2075 18 50.4011 18 48.5393V39.1151C18 38.3902 18.288 37.695 18.8005 37.1824C19.3131 36.6698 20.0083 36.3818 20.7332 36.3818C21.4581 36.3818 22.1534 36.6698 22.6659 37.1824C23.1785 37.695 23.4665 38.3902 23.4665 39.1151V45.9482" fill="white"/>
<path d="M23.4665 58L19.7967 53.6614C18.6336 52.2075 18 50.4011 18 48.5393V39.1151C18 38.3902 18.288 37.695 18.8005 37.1824C19.3131 36.6698 20.0083 36.3818 20.7332 36.3818C21.4581 36.3818 22.1534 36.6698 22.6659 37.1824C23.1785 37.695 23.4665 38.3902 23.4665 39.1151V45.9482" stroke="#090909" stroke-width="3" stroke-linecap="round" stroke-linejoin="round"/>
<path d="M31.6662 58V52.5335C31.667 50.912 31.1869 49.3268 30.2869 47.9781L28.2059 44.8622C28.0276 44.5668 27.7913 44.3107 27.5112 44.1094C27.2311 43.908 26.913 43.7655 26.5763 43.6906C26.2395 43.6156 25.8911 43.6098 25.552 43.6733C25.2129 43.7369 24.8903 43.8686 24.6035 44.0604C24.0889 44.4055 23.7174 44.926 23.5585 45.5249C23.3996 46.1237 23.464 46.76 23.7398 47.3148L26.2034 51.4147" fill="white"/>
<path d="M31.6662 58V52.5335C31.667 50.912 31.1869 49.3268 30.2869 47.9781L28.2059 44.8622C28.0276 44.5668 27.7913 44.3107 27.5112 44.1094C27.2311 43.908 26.913 43.7655 26.5763 43.6906C26.2395 43.6156 25.8911 43.6098 25.552 43.6733C25.2129 43.7369 24.8903 43.8686 24.6035 44.0604C24.0889 44.4055 23.7174 44.926 23.5585 45.5249C23.3996 46.1237 23.464 46.76 23.7398 47.3148L26.2034 51.4147" stroke="#090909" stroke-width="3" stroke-linecap="round" stroke-linejoin="round"/>
<path d="M53.5322 58L57.2021 53.6614C58.3651 52.2075 58.9987 50.4011 58.9987 48.5393V39.1151C58.9987 38.3902 58.7108 37.695 58.1982 37.1824C57.6856 36.6698 56.9904 36.3818 56.2655 36.3818C55.5406 36.3818 54.8454 36.6698 54.3328 37.1824C53.8202 37.695 53.5322 38.3902 53.5322 39.1151V45.9482" fill="white"/>
<path d="M53.5322 58L57.2021 53.6614C58.3651 52.2075 58.9987 50.4011 58.9987 48.5393V39.1151C58.9987 38.3902 58.7108 37.695 58.1982 37.1824C57.6856 36.6698 56.9904 36.3818 56.2655 36.3818C55.5406 36.3818 54.8454 36.6698 54.3328 37.1824C53.8202 37.695 53.5322 38.3902 53.5322 39.1151V45.9482" stroke="#090909" stroke-width="3" stroke-linecap="round" stroke-linejoin="round"/>
<path d="M45.3325 57.9999V52.5334C45.3318 50.9119 45.8118 49.3266 46.7119 47.978L48.7928 44.8584C48.9704 44.5623 49.2062 44.3054 49.4859 44.1031C49.7657 43.9008 50.0836 43.7575 50.4204 43.6817C50.7572 43.6058 51.1059 43.5992 51.4453 43.6621C51.7848 43.725 52.1079 43.8561 52.3952 44.0475C52.9127 44.3923 53.2864 44.9143 53.4462 45.5152C53.6059 46.1162 53.5406 46.7548 53.2626 47.311L50.799 51.4109" fill="white"/>
<path d="M45.3325 57.9999V52.5334C45.3318 50.9119 45.8118 49.3266 46.7119 47.978L48.7928 44.8584C48.9704 44.5623 49.2062 44.3054 49.4859 44.1031C49.7657 43.9008 50.0836 43.7575 50.4204 43.6817C50.7572 43.6058 51.1059 43.5992 51.4453 43.6621C51.7848 43.725 52.1079 43.8561 52.3952 44.0475C52.9127 44.3923 53.2864 44.9143 53.4462 45.5152C53.6059 46.1162 53.5406 46.7548 53.2626 47.311L50.799 51.4109" stroke="#090909" stroke-width="3" stroke-linecap="round" stroke-linejoin="round"/>
</g>
<defs>
<clipPath id="clip0_1_126">
<rect width="76" height="76" fill="white"/>
</clipPath>
</defs>
</svg>
