<svg width="172" height="172" viewBox="0 0 172 172" fill="none" xmlns="http://www.w3.org/2000/svg">
<g clip-path="url(#clip0_1_215)">
<path d="M86 172C133.496 172 172 133.496 172 86C172 38.5035 133.496 0 86 0C38.5035 0 0 38.5035 0 86C0 133.496 38.5035 172 86 172Z" fill="#FFF3E0"/>
<mask id="mask0_1_215" style="mask-type:alpha" maskUnits="userSpaceOnUse" x="0" y="0" width="172" height="172">
<path d="M86 172C133.496 172 172 133.496 172 86C172 38.5035 133.496 0 86 0C38.5035 0 0 38.5035 0 86C0 133.496 38.5035 172 86 172Z" fill="#F0ECE8"/>
</mask>
<g mask="url(#mask0_1_215)">
<path d="M123.269 82.1403V135.787H48.7407V82.1403L86.0047 43.4844L123.269 82.1403Z" fill="white"/>
<path d="M60.6267 135.788V93.8124H81.2932V135.788H60.6267ZM86.0047 35.1323L36.3195 85.4601L42.6372 91.7778L86.0047 46.697L129.372 91.7778L135.69 85.4601L123.269 72.9317V43.4846H110.847V60.2962L86.0047 35.1323Z" fill="#FF9C08"/>
<path d="M69.4073 79.2494C72.7268 60.6174 99.1757 60.6174 102.495 79.2494H69.4073Z" fill="#FF9C08"/>
<path d="M123.269 139H48.7408C46.9204 139 45.5284 137.608 45.5284 135.788V92.8484H40.4956C39.639 92.8484 38.7823 92.5271 38.1399 91.8847L33.9637 87.7085C32.6788 86.4236 32.6788 84.4961 33.9637 83.2112L83.649 32.8834C84.8269 31.7055 86.9685 31.7055 88.2534 32.8834L107.528 52.4791V43.4844C107.528 41.664 108.92 40.272 110.74 40.272H123.162C124.982 40.272 126.374 41.664 126.374 43.4844V71.5394L137.832 83.2112C139.117 84.4961 139.117 86.4236 137.832 87.7085L133.655 91.8847C133.013 92.5271 132.263 92.8484 131.407 92.8484H126.374V135.788C126.481 137.608 124.982 139 123.269 139ZM51.9532 132.575H119.949V89.636C119.949 88.7793 120.27 87.9227 120.913 87.3873C121.555 86.7448 122.412 86.4236 123.162 86.4236H130.122L131.086 85.4598L120.913 75.1801C120.27 74.5377 119.949 73.7881 119.949 72.9314V46.6968H113.953V60.296C113.953 61.5809 113.203 62.7588 111.918 63.2942C110.74 63.8296 109.348 63.5084 108.385 62.5447L86.0047 39.7366L40.9239 85.4598L41.8877 86.4236H48.8479C49.7045 86.4236 50.5612 86.7448 51.0966 87.3873C51.7391 88.0298 52.0603 88.7793 52.0603 89.636V132.575H51.9532Z" fill="#090909"/>
<path d="M90.7163 93.8125H111.383V114.8H90.7163V93.8125Z" fill="#FF9C08"/>
<path d="M70.9065 100.13C69.7989 100.13 68.7367 100.57 67.9535 101.353C67.1703 102.136 66.7303 103.199 66.7303 104.306C66.7303 105.414 67.1703 106.476 67.9535 107.259C68.7367 108.042 69.7989 108.482 70.9065 108.482C72.0141 108.482 73.0763 108.042 73.8594 107.259C74.6426 106.476 75.0826 105.414 75.0826 104.306C75.0826 103.199 74.6426 102.136 73.8594 101.353C73.0763 100.57 72.0141 100.13 70.9065 100.13Z" fill="white"/>
</g>
</g>
<defs>
<clipPath id="clip0_1_215">
<rect width="172" height="172" fill="white"/>
</clipPath>
</defs>
</svg>
