<svg  viewBox="0 0 43 38" fill="none" xmlns="http://www.w3.org/2000/svg">
<path d="M41.1743 7.52075C39.2939 3.38924 35.4008 0.581925 31.0574 0.15818C27.535 -0.159629 24.0656 0.740829 21.2848 2.72713C21.2583 2.75362 21.2318 2.7801 21.2053 2.7801C21.1788 2.75362 21.1524 2.72713 21.1259 2.72713C18.3186 0.740829 14.8492 -0.159629 11.3533 0.184664C6.98339 0.581925 3.11672 3.38924 1.20987 7.52075C-0.829407 11.9436 -0.273242 17.0285 2.74594 21.8221C7.14229 28.8139 14.6638 33.7929 20.1989 36.7327L21.0729 37.1564V37.1829H21.0994H21.1259L22.1852 36.7592C27.7204 33.8194 35.2684 28.8404 39.6382 21.8486C42.6574 17.0285 43.2136 11.9436 41.1743 7.52075ZM36.0364 19.3062C32.4081 25.1062 26.1049 29.4231 21.1524 32.1774V32.098C16.1998 29.3701 9.97609 25.0532 6.37426 19.3062C4.22905 15.8897 3.8053 12.4203 5.12951 9.50705C6.34777 6.85865 8.94321 4.97828 11.724 4.71344C14.0281 4.50157 16.1998 5.00476 18.0008 6.03764C16.9414 7.54723 16.1998 9.24221 15.8291 11.0696C15.114 14.4331 15.6702 17.7171 17.2592 19.8094C18.2921 21.16 19.6957 21.9016 21.1788 21.9281C21.1788 21.9281 21.1788 21.9281 21.2053 21.9281C21.2053 21.9281 21.2053 21.9281 21.2318 21.9281C22.7149 21.9281 24.1186 21.16 25.1515 19.8094C26.767 17.7171 27.2967 14.4331 26.5816 11.0696C26.3168 9.79838 25.8665 8.58011 25.2574 7.4413C23.8802 8.20933 22.7414 9.29518 21.9204 10.6194C22.1058 11.0696 22.2382 11.5728 22.3441 12.076C22.8473 14.4861 22.3441 16.234 21.7615 16.9756C21.682 17.108 21.4437 17.3728 21.2053 17.3728C20.967 17.3728 20.7551 17.0815 20.6492 16.9756C20.0665 16.2075 19.5633 14.4596 20.0665 12.076C21.0464 7.33536 25.5222 4.26321 30.6601 4.73992C33.4674 5.00476 36.0629 6.88513 37.2547 9.53354C38.6054 12.4203 38.1551 15.8897 36.0364 19.3062Z" fill="#FF9C08"/>
</svg>
