<svg width="172" height="172" viewBox="0 0 172 172" fill="none" xmlns="http://www.w3.org/2000/svg">
<g clip-path="url(#clip0_1_230)">
<path d="M86 172C133.496 172 172 133.496 172 86C172 38.5035 133.496 0 86 0C38.5035 0 0 38.5035 0 86C0 133.496 38.5035 172 86 172Z" fill="#FFF3E0"/>
<mask id="mask0_1_230" style="mask-type:alpha" maskUnits="userSpaceOnUse" x="0" y="0" width="172" height="172">
<path d="M86 172C133.496 172 172 133.496 172 86C172 38.5035 133.496 0 86 0C38.5035 0 0 38.5035 0 86C0 133.496 38.5035 172 86 172Z" fill="#F0ECE8"/>
</mask>
<g mask="url(#mask0_1_230)">
<path d="M105.368 53.6758C105.361 53.6758 105.355 53.6758 105.349 53.6758C105.347 53.6758 105.344 53.6758 105.342 53.6758C105.339 53.6758 105.337 53.6758 105.335 53.6758C103.922 53.6782 102.51 53.802 101.121 54.0237C100.133 54.1867 99.1631 54.406 98.2135 54.6768C108.958 57.7619 116.885 67.3015 116.885 78.7929C116.885 86.6343 113.085 89.6974 107.328 98.1527L86.009 125.597L121.786 98.1515C127.544 93.4956 131.342 86.6343 131.342 78.7929C131.342 64.8253 119.58 53.6758 105.368 53.6758Z" fill="#FF9C08"/>
<path d="M86.0466 58.6779C81.0821 53.9936 74.2029 51.1758 66.6504 51.1758C50.8829 51.1758 38.1757 63.4973 38.1757 78.7929C38.1757 87.5941 42.5078 95.5407 49.3374 100.636L84.4881 127.581L86.0095 128.747L87.5306 127.58L123.307 100.136L123.312 100.133C129.782 95.1453 133.842 87.4406 133.842 78.7929C133.842 63.352 120.868 51.1758 105.368 51.1758C97.9941 51.1758 91.152 54.0183 86.0466 58.6779Z" fill="#FF9C08" stroke="#090909" stroke-width="5"/>
<path d="M66.6504 61.1494C56.6036 61.1494 48.5171 69.1134 48.5171 78.7914C48.5171 80.8743 50.1099 82.4671 52.1928 82.4671C54.2756 82.4671 55.8684 80.8743 55.8684 78.7914C55.8684 73.1554 60.7693 68.5008 66.6504 68.5008C68.7333 68.5008 70.3261 66.908 70.3261 64.8251C70.3261 62.7422 68.7333 61.1494 66.6504 61.1494Z" fill="white"/>
</g>
</g>
<defs>
<clipPath id="clip0_1_230">
<rect width="172" height="172" fill="white"/>
</clipPath>
</defs>
</svg>
