<?xml version="1.0" encoding="utf-8"?><svg viewBox="0 0 442 384" xmlns="http://www.w3.org/2000/svg" xmlns:xlink="http://www.w3.org/1999/xlink"><style>:root>svg{display:none}:root>svg:target{display:block}</style><svg viewBox="0 0 26 26" fill="none" id="chb" xmlns="http://www.w3.org/2000/svg"><g clip-path="url(#aa)"><path d="M13 26c7.18 0 13-5.82 13-13S20.18 0 13 0 0 5.82 0 13s5.82 13 13 13Z" fill="#FF9C08"/><path d="M7.117 13.84 11 17.5l7.883-8.702" stroke="#fff" stroke-width="2.5" stroke-linecap="round" stroke-linejoin="round"/></g><defs><clipPath id="aa"><path fill="#fff" d="M0 0h26v26H0z"/></clipPath></defs></svg><svg viewBox="0 0 106 82" fill="none" id="education" xmlns="http://www.w3.org/2000/svg"><path d="M57.447 43.798c-2.752 1.032-5.848 1.032-8.687 0L5.584 27.112c-2.924-1.119-2.924-5.333 0-6.451l43.263-16.6c2.753-1.032 5.85-1.032 8.688 0l43.263 16.6c1.548.602 2.408 1.978 2.322 3.354v1.806L57.447 43.798Z" fill="#FF9C08"/><path d="M101.657 18.338 58.394 1.652a14.708 14.708 0 0 0-10.494 0L4.637 18.338a5.96 5.96 0 0 0-3.87 5.59 5.96 5.96 0 0 0 3.87 5.592l11.526 4.472v20.041c0 17.546 19.782 19.782 36.984 19.782s36.985-2.236 36.985-19.782V37.261c0-1.979-.947-3.87-2.581-4.989a6.138 6.138 0 0 0-5.59-.688l-25.46 9.805a9.27 9.27 0 0 1-6.794 0L6.529 24.703c-.43-.172-.516-.516-.516-.774s.086-.602.516-.774l43.264-16.6a9.27 9.27 0 0 1 6.794 0l43.264 16.6c.516.172.688.602.688.86V36.83c0 1.463 1.118 2.58 2.58 2.58s2.581-1.117 2.581-2.58V24.188a6.212 6.212 0 0 0-4.043-5.849ZM103.033 56.613c-1.462 0-2.58-1.118-2.58-2.58v-4.3c0-1.463 1.118-2.581 2.58-2.581s2.58 1.118 2.58 2.58v4.301c0 1.462-1.118 2.58-2.58 2.58Z" fill="#090909"/><path d="m17.46 32.253-3.33-1.322-.091 3.581-.512 19.871v.015l-.001.016c-.12 9.003 3.09 14.2 5.746 16.04 2.824 2.986 7.506 5.128 12.846 6.508 5.582 1.442 12.247 2.145 19.167 1.952h.025c10.08-.38 16.256-1.63 20.458-3.107 3.006-1.055 5.157-2.33 6.623-3.2.511-.304.938-.558 1.29-.736l.254-.129.219-.182c3.651-3.045 5.589-5.634 6.594-8.147.793-1.984.943-3.866 1.057-5.309.026-.319.049-.616.078-.888l.014-.133-.001-.134c-.007-2.72-.093-8.133-.167-12.81l-.061-3.913c-.058-3.846-3.961-6.52-7.574-5.137l-27.34 10.464a2.5 2.5 0 0 1-1.816-.012L17.46 32.253Z" fill="#fff" stroke="#090909" stroke-width="5"/></svg><svg viewBox="0 0 82 110" fill="none" id="environmental" xmlns="http://www.w3.org/2000/svg"><path d="M62.59 35.318a21.556 21.556 0 0 0 2.54-10.158c0-11.957-9.629-21.586-21.375-21.586-11.745 0-21.375 9.629-21.375 21.586 0 .53 0 .952.106 1.481-11.005 3.704-18.835 14.18-18.835 26.56 0 15.45 12.486 28.04 27.83 28.04h23.067c13.016 0 23.491-10.58 23.491-23.702-.105-10.158-6.454-18.835-15.449-22.22Z" fill="#FF9C08"/><path d="M40.792 30.662c-1.799 0-3.174 1.376-3.174 3.175v14.39L25.132 41.88c-.424-.212-.953-.318-1.482-.318a3.05 3.05 0 0 0-2.751 1.693c-.74 1.587-.212 3.492 1.376 4.233l15.237 7.936v17.036c0 1.799 1.376 3.175 3.175 3.175 1.798 0 3.174-1.376 3.174-3.175v-1.904l15.343-7.725c1.587-.846 2.222-2.751 1.482-4.338-.529-1.059-1.588-1.8-2.752-1.8-.529 0-.952.106-1.481.424l-12.486 6.349V33.837c0-1.8-1.376-3.175-3.175-3.175Z" fill="#fff"/><path d="M54.337 84.522H31.269C14.233 84.522.265 70.555.265 53.307c0-12.592 7.513-23.809 18.835-28.676C19.523 11.192 30.317.505 43.65.505c13.544 0 24.549 11.11 24.549 24.76 0 2.858-.53 5.82-1.482 8.466 8.677 4.55 14.285 13.756 14.285 23.808.106 14.92-11.851 26.983-26.665 26.983ZM43.649 6.854c-10.052 0-18.2 8.253-18.2 18.412v1.27c.106 1.48-.74 2.75-2.116 3.174-10.053 3.386-16.72 12.91-16.72 23.491 0 13.756 11.006 24.867 24.656 24.867h23.068c11.216 0 20.316-9.206 20.316-20.529 0-8.57-5.29-16.295-13.227-19.258-.846-.317-1.481-.952-1.904-1.799-.318-.846-.318-1.799.211-2.645a18.77 18.77 0 0 0 2.117-8.677c0-10.053-8.148-18.306-18.2-18.306Zm-2.962 102.641c-1.8 0-3.175-1.376-3.175-3.175V89.919c0-1.8 1.376-3.174 3.175-3.174 1.798 0 3.174 1.375 3.174 3.174v16.401c0 1.799-1.376 3.175-3.174 3.175Z" fill="#090909"/></svg><svg viewBox="0 0 96 96" fill="none" id="food" xmlns="http://www.w3.org/2000/svg"><path d="M85.983 33.447V20.539A18.178 18.178 0 0 0 67.761 2.317a18.179 18.179 0 0 0-18.222 18.222v12.908" fill="#F08200"/><path d="M41.187 67.613c14.677 0 26.574-11.898 26.574-26.574 0-14.677-11.897-26.574-26.574-26.574-14.677 0-26.574 11.897-26.574 26.574 0 14.676 11.897 26.574 26.574 26.574Z" fill="#FF9C08"/><path d="M93.576 32.688H2.464l6.758 54.059c.455 3.796 3.72 6.682 7.517 6.682h62.487c3.796 0 7.061-2.886 7.517-6.682l6.833-54.06Z" fill="#fff"/><path d="M25.242 80.521c-1.139 0-2.126-.835-2.277-1.974l-3.797-30.37c-.152-1.215.76-2.354 1.974-2.506 1.215-.152 2.354.76 2.506 1.974l3.796 30.37c.152 1.215-.759 2.354-1.974 2.506h-.228ZM40.428 80.52c-1.291 0-2.278-.986-2.278-2.277v-30.37c0-1.291.987-2.278 2.278-2.278 1.29 0 2.278.987 2.278 2.278v30.37c0 1.29-.988 2.278-2.278 2.278ZM55.613 80.52c-1.29 0-2.278-.986-2.278-2.277v-30.37c0-1.291.987-2.278 2.278-2.278 1.29 0 2.278.987 2.278 2.278v30.37c0 1.29-.987 2.278-2.278 2.278ZM70.798 80.521h-.304c-1.214-.152-2.125-1.291-1.974-2.505l3.797-30.371c.152-1.215 1.29-2.126 2.505-1.974 1.215.152 2.126 1.29 1.974 2.505L73 78.546c-.076 1.14-1.063 1.975-2.202 1.975Z" fill="#090909"/><path d="M21.446 21.299h-6.074A12.897 12.897 0 0 1 2.464 8.39V2.317H8.54c7.137 0 12.907 5.77 12.907 12.907V21.3Z" fill="#FF9C08"/><path d="M95.247 31.169c-.456-.456-1.063-.76-1.671-.76h-5.315v-9.87c0-11.313-9.187-20.5-20.5-20.5-5.011 0-9.87 1.822-13.59 5.163-.912.835-.988 2.278-.152 3.189.835.911 2.277.987 3.188.152a16.073 16.073 0 0 1 10.554-3.948c6.91 0 12.832 4.48 15.034 10.63l-9.339 7.82c-.987.835-1.063 2.277-.304 3.189.456.531 1.063.835 1.746.835.532 0 1.063-.152 1.443-.532l7.289-6.15V30.41H18.56c4.101-8.351 12.453-13.666 21.868-13.666 1.29 0 2.278-.987 2.278-2.278 0-1.29-.988-2.278-2.278-2.278-6.15 0-11.92 1.898-16.704 5.315v-2.278C23.724 6.872 16.89.04 8.539.04H2.465C1.174.04.187 1.026.187 2.317V8.39c0 8.352 6.833 15.185 15.185 15.185h2.05c-1.519 2.05-2.885 4.328-3.872 6.834H2.465c-.684 0-1.291.303-1.67.759-.38.455-.684 1.139-.608 1.822l6.757 54.06c.608 4.935 4.86 8.655 9.795 8.655h62.487c4.935 0 9.187-3.72 9.795-8.655l6.757-54.06c.152-.683-.076-1.29-.531-1.822ZM4.742 8.39V4.595H8.54c5.846 0 10.63 4.783 10.63 10.63v3.796h-3.797c-5.846 0-10.63-4.784-10.63-10.63Zm79.799 78.128c-.304 2.658-2.582 4.632-5.239 4.632H16.739c-2.658 0-4.936-1.974-5.24-4.632L5.047 34.965h85.949L84.541 86.52Z" fill="#090909"/></svg><svg viewBox="0 0 102 93" fill="none" id="health" xmlns="http://www.w3.org/2000/svg"><path d="M89.964 89.835H11.448c-4.798 0-8.724-3.926-8.724-8.724V28.766c0-4.798 3.926-8.723 8.724-8.723h78.516c4.798 0 8.724 3.925 8.724 8.724V81.11c0 4.798-3.926 8.724-8.724 8.724Z" fill="#FF9C08"/><path d="M89.964 92.452H11.448A11.319 11.319 0 0 1 .107 81.11V28.767c0-6.282 5.06-11.342 11.34-11.342h78.517c6.281 0 11.341 5.06 11.341 11.341V81.11c0 6.282-5.06 11.342-11.341 11.342ZM11.448 22.66a6.07 6.07 0 0 0-6.107 6.107V81.11a6.069 6.069 0 0 0 6.107 6.107h78.516a6.07 6.07 0 0 0 6.107-6.107V28.767a6.07 6.07 0 0 0-6.107-6.107H11.448Z" fill="#090909"/><path d="M68.154 22.66c-1.483 0-2.617-1.134-2.617-2.618 0-7.677-6.282-13.958-13.959-13.958h-1.745c-4.449 0-8.462 2.007-11.166 5.583-.873 1.135-2.53 1.396-3.665.524-1.134-.873-1.395-2.53-.523-3.664C38.143 3.64 43.727.85 49.833.85h1.745c10.556 0 19.193 8.636 19.193 19.192 0 1.483-1.134 2.618-2.617 2.618Z" fill="#090909"/><path d="M66.409 48.832h-9.596v-9.597c0-1.483-1.134-2.617-2.617-2.617h-6.98c-1.483 0-2.617 1.134-2.617 2.617v9.597h-9.596c-1.483 0-2.617 1.134-2.617 2.617v6.98c0 1.482 1.134 2.616 2.617 2.616h9.596v9.597c0 1.483 1.134 2.617 2.617 2.617h6.98c1.483 0 2.617-1.134 2.617-2.617v-9.597h9.596c1.483 0 2.617-1.134 2.617-2.617V51.45c0-1.483-1.134-2.617-2.617-2.617Z" fill="#fff"/></svg><svg viewBox="0 0 106 107" fill="none" id="house" xmlns="http://www.w3.org/2000/svg"><path d="M90.269 50.14v53.647H15.741V50.14l37.264-38.656L90.269 50.14Z" fill="#fff"/><path d="M27.627 103.788V61.812h20.666v41.976H27.627ZM53.005 3.132 3.319 53.46l6.318 6.318 43.368-45.081 43.367 45.08 6.318-6.317-12.421-12.528V11.485H77.847v16.811L53.005 3.132Z" fill="#FF9C08"/><path d="M36.407 47.25c3.32-18.633 29.769-18.633 33.088 0H36.407Z" fill="#FF9C08"/><path d="M90.269 107H15.741c-1.82 0-3.213-1.392-3.213-3.212v-42.94H7.496a3.322 3.322 0 0 1-2.356-.963L.964 55.709c-1.285-1.285-1.285-3.213 0-4.498L50.649.883c1.178-1.177 3.32-1.177 4.604 0L74.528 20.48v-8.995c0-1.82 1.392-3.212 3.212-3.212h12.422c1.82 0 3.212 1.392 3.212 3.212V39.54l11.458 11.672c1.285 1.285 1.285 3.213 0 4.498l-4.177 4.176c-.642.642-1.392.963-2.248.963h-5.033v42.94c.107 1.82-1.392 3.212-3.105 3.212Zm-71.316-6.425H86.95V57.636c0-.857.321-1.713.964-2.249.642-.642 1.499-.963 2.249-.963h6.96l.964-.964-10.173-10.28c-.643-.642-.964-1.392-.964-2.249V14.697h-5.996v13.599c0 1.285-.75 2.463-2.035 2.998-1.178.536-2.57.214-3.533-.75L53.005 7.738 7.924 53.46l.964.964h6.96c.856 0 1.713.32 2.249.963.642.643.963 1.392.963 2.249v42.939h-.107Z" fill="#090909"/><path d="M57.716 61.813h20.667V82.8H57.716V61.813Z" fill="#FF9C08"/><path d="M37.907 68.13a4.177 4.177 0 1 0 0 8.353 4.177 4.177 0 0 0 0-8.353Z" fill="#fff"/></svg><svg viewBox="0 0 43 38" fill="none" id="logo" xmlns="http://www.w3.org/2000/svg"><path d="M41.174 7.52C39.294 3.39 35.401.583 31.057.159c-3.522-.318-6.991.583-9.772 2.57-.027.026-.053.052-.08.052-.026-.026-.053-.053-.08-.053C18.32.741 14.85-.16 11.354.185 6.983.582 3.117 3.389 1.21 7.52c-2.04 4.423-1.483 9.508 1.536 14.301 4.396 6.992 11.918 11.97 17.453 14.91l.874.424v.027h.053l1.06-.424c5.534-2.94 13.082-7.919 17.452-14.91 3.02-4.82 3.576-9.905 1.536-14.328Zm-5.138 11.786c-3.628 5.8-9.931 10.117-14.884 12.871v-.079C16.2 29.37 9.976 25.053 6.374 19.306 4.23 15.89 3.805 12.42 5.13 9.507c1.218-2.648 3.813-4.529 6.594-4.794 2.304-.211 4.476.292 6.277 1.325a13.347 13.347 0 0 0-2.172 5.032c-.715 3.363-.159 6.647 1.43 8.74 1.033 1.35 2.437 2.092 3.92 2.118h.053c1.483 0 2.887-.768 3.92-2.119 1.615-2.092 2.145-5.376 1.43-8.74a13.552 13.552 0 0 0-1.325-3.628 9.15 9.15 0 0 0-3.337 3.178c.186.45.318.954.424 1.457.503 2.41 0 4.158-.582 4.9-.08.132-.318.397-.557.397-.238 0-.45-.292-.556-.397-.582-.768-1.086-2.516-.582-4.9.98-4.74 5.455-7.813 10.593-7.336 2.807.265 5.403 2.145 6.595 4.794 1.35 2.886.9 6.356-1.219 9.772Z" fill="#FF9C08"/></svg><svg viewBox="0 0 102 84" fill="none" id="love" xmlns="http://www.w3.org/2000/svg"><path d="M70.368 5.676h-.033a27.065 27.065 0 0 0-4.214.348c-.988.163-1.958.382-2.907.653 10.744 3.085 18.671 12.625 18.671 24.116 0 7.841-3.8 10.904-9.557 19.36L51.009 77.597l35.777-27.445c5.758-4.656 9.556-11.518 9.556-19.36 0-13.967-11.762-25.116-25.974-25.116Z" fill="#FF9C08"/><path d="M51.047 10.678C46.082 5.994 39.203 3.176 31.65 3.176c-15.767 0-28.474 12.321-28.474 27.617 0 8.801 4.332 16.748 11.161 21.843l35.151 26.945 1.522 1.166 1.52-1.167 35.777-27.444.005-.003c6.47-4.988 10.53-12.692 10.53-21.34 0-15.441-12.974-27.617-28.474-27.617a28.688 28.688 0 0 0-19.321 7.502Z" fill="#FF9C08" stroke="#090909" stroke-width="5"/><path d="M31.65 13.15c-10.046 0-18.133 7.963-18.133 17.641 0 2.083 1.593 3.676 3.676 3.676s3.675-1.593 3.675-3.676c0-5.636 4.901-10.29 10.782-10.29 2.083 0 3.676-1.593 3.676-3.676s-1.593-3.676-3.676-3.676Z" fill="#fff"/></svg><svg viewBox="0 0 406 384" fill="none" id="spot1" xmlns="http://www.w3.org/2000/svg"><path opacity=".1" fill-rule="evenodd" clip-rule="evenodd" d="M70.643-279.871c104.758-3.804 188.985 76.961 252.036 160.711 60.44 80.28 99.481 178.166 76.789 276.059-22.609 97.532-96.981 176.278-190.141 212.939-85.698 33.725-175.852 1.329-260.162-35.732-89.801-39.474-194.752-79.48-218.476-174.667-24.024-96.392 49.076-182.525 109.872-261.089 62.464-80.72 128.086-174.516 230.082-178.221Z" fill="#fff"/></svg><svg viewBox="0 0 442 384" fill="none" id="spot2" xmlns="http://www.w3.org/2000/svg"><path opacity=".1" fill-rule="evenodd" clip-rule="evenodd" d="M344.643.13c104.758-3.805 188.985 76.96 252.036 160.71 60.44 80.28 99.481 178.166 76.789 276.059-22.609 97.532-96.981 176.278-190.141 212.939-85.698 33.725-175.852 1.329-260.162-35.732-89.801-39.474-194.752-79.48-218.476-174.667-24.024-96.392 49.076-182.525 109.872-261.089C177.025 97.63 242.647 3.834 344.643.13Z" fill="#fff"/></svg></svg>