<?xml version="1.0" encoding="utf-8"?><svg viewBox="0 0 442 384" xmlns="http://www.w3.org/2000/svg" xmlns:xlink="http://www.w3.org/1999/xlink"><style>:root>svg{display:none}:root>svg:target{display:block}</style><svg fill="none" viewBox="0 0 41 46" id="Vector" xmlns="http://www.w3.org/2000/svg"><path d="M9.037.992C5.037-1.356 0 1.53 0 6.167v33.042c0 4.637 5.037 7.522 9.037 5.174l28.147-16.519c3.95-2.318 3.951-8.03 0-10.349L9.037.992Z" fill="#FF9C08"/></svg><svg fill="none" viewBox="0 0 76 76" id="boll" xmlns="http://www.w3.org/2000/svg"><g clip-path="url(#aa)"><path d="M38 76c20.987 0 38-17.013 38-38S58.987 0 38 0 0 17.013 0 38s17.013 38 38 38Z" fill="#FFF3E0"/><path d="M53.2 56.114c10.005-8.395 11.31-23.31 2.914-33.315-8.395-10.004-23.31-11.308-33.315-2.913-10.004 8.395-11.308 23.31-2.913 33.315 8.395 10.004 23.31 11.308 33.315 2.913Z" fill="#fff"/><path d="M41.456 14.672c-4.775 3.547-8.55 8.731-10.414 15.098 7.549-6.321 16.644-8.913 24.056-7.503l-.09-.091a18.85 18.85 0 0 0-13.552-7.504Z" fill="#FF9C08"/><path d="M20.81 44.913c1.546-5.73 5.048-11.142 10.277-15.189-3.137 9.277-1.318 25.102 2.683 31.514a28.71 28.71 0 0 1-14.324-8.23l-.455-.455 1.819-7.64ZM22.811 19.902c-4.866 3.501-7.913 8.958-8.23 14.916l16.143-5.412-7.913-9.504Z" fill="#FF9C08"/><path d="M61.283 38.137c-7.504-5.457-20.01-9.55-30.241-8.413l-.318-.318L53.188 56.1l1.32-1.319a22.645 22.645 0 0 0 6.775-16.644Z" fill="#FF9C08"/><path d="M31.497 55.327c-.591 0-1.137-.41-1.32-1-2.364-8.504-2.5-17.872-.408-24.966a30.306 30.306 0 0 1 4.956-9.914c.455-.591 1.32-.727 1.91-.273.592.455.728 1.319.273 1.91-2.046 2.683-3.547 5.73-4.502 9.004-1.955 6.64-1.773 15.416.455 23.465a1.397 1.397 0 0 1-.955 1.683c-.182.09-.273.09-.41.09Z" fill="#090909"/><path d="M57.145 21.903C48.277 11.353 32.497 9.988 21.9 18.856c-5.093 4.274-8.23 10.323-8.822 16.962-.59 6.64 1.455 13.142 5.776 18.235a24.556 24.556 0 0 0 16.962 8.823c.727.045 1.5.09 2.228.09 5.866 0 11.505-2.046 16.053-5.866a24.556 24.556 0 0 0 8.822-16.962c.546-6.64-1.455-13.097-5.775-18.235Zm3.001 13.824c-7.094-4.502-16.462-7.321-24.693-7.503 6.23-4.048 13.233-5.73 19.418-4.593h.136c0 .045.046.045.046.09a21.454 21.454 0 0 1 5.093 12.006Zm-6.821 18.417L41.819 40.411a1.37 1.37 0 0 0-1.91-.182 1.37 1.37 0 0 0-.181 1.91l11.505 13.733c-4.366 3.23-9.732 4.775-15.189 4.275-5.912-.5-11.323-3.32-15.143-7.867 0-.046-.046-.046-.046-.091v-.182c0-3.547.956-7.367 2.774-11.005.364-.682.091-1.5-.59-1.819-.683-.318-1.501-.09-1.82.591-1.455 2.91-2.41 5.867-2.82 8.822a21.792 21.792 0 0 1-2.591-12.55c.5-5.912 3.32-11.324 7.867-15.144 4.184-3.456 9.231-5.184 14.325-5.184 4.956 0 9.822 1.637 13.87 4.82-7.185-.227-14.916 2.592-21.374 7.913-4.047.5-7.822 1.728-11.278 3.683-.636.364-.91 1.183-.5 1.865.364.637 1.183.91 1.865.5 3.274-1.819 6.866-3.001 10.686-3.41 10.187-1.137 22.238 3.137 29.013 7.958-.318 5.593-2.637 11.05-6.957 15.097Z" fill="#090909"/><path d="M27.813 27.269a1.36 1.36 0 0 1-1.046-.5l-2.091-2.547c-.455-.591-.41-1.456.181-1.91.592-.455 1.456-.41 1.91.182l2.092 2.546c.455.591.41 1.456-.182 1.91a1.276 1.276 0 0 1-.864.319Z" fill="#090909"/><path d="M33.647 32.893a4.548 4.548 0 1 0-5.847-6.967 4.548 4.548 0 0 0 5.847 6.967Z" fill="#fff"/><path d="M30.724 35.318c-.182 0-.364 0-.546-.046-1.592-.136-3.001-.864-4.002-2.092-1-1.228-1.5-2.728-1.364-4.32.136-1.591.864-3.001 2.092-4.002 1.228-1 2.728-1.5 4.32-1.364 1.591.137 3.001.864 4.002 2.092 2.092 2.501 1.773 6.23-.728 8.322a5.71 5.71 0 0 1-3.774 1.41Zm0-9.095c-.728 0-1.456.272-2.047.727a3.318 3.318 0 0 0-1.137 2.183 3.042 3.042 0 0 0 .728 2.32c1.137 1.363 3.138 1.5 4.502.409 1.364-1.137 1.5-3.138.41-4.503a3.318 3.318 0 0 0-2.183-1.137h-.273Z" fill="#090909"/></g><defs><clipPath id="aa"><path fill="#fff" d="M0 0h76v76H0z"/></clipPath></defs></svg><svg fill="none" viewBox="0 0 76 76" id="cap" xmlns="http://www.w3.org/2000/svg"><g clip-path="url(#ba)"><path d="M38 76c20.987 0 38-17.013 38-38S58.987 0 38 0 0 17.013 0 38s17.013 38 38 38Z" fill="#FFF3E0"/><path d="M55.842 34.199v12.182c0 1.43-.65 2.817-1.734 3.728-9.06 7.283-22.37 7.5-31.213.043-1.084-.954-1.734-2.34-1.734-3.771V34.112" fill="#fff"/><path d="m14.658 31.208 24.277 10.837 23.41-10.837-23.41-10.838-24.277 10.838Z" fill="#FF9C08"/><path d="M38.284 56.915c-5.852 0-11.66-1.907-16.213-5.766-1.387-1.17-2.167-2.904-2.167-4.768V34.112c0-.736.563-1.3 1.3-1.3.737 0 1.3.564 1.3 1.3v12.269a3.71 3.71 0 0 0 1.258 2.774c8.193 6.936 20.895 6.893 29.565-.043.824-.65 1.257-1.647 1.257-2.731V34.199c0-.737.564-1.3 1.3-1.3.738 0 1.301.563 1.301 1.3v12.182c0 1.864-.823 3.598-2.254 4.725-4.855 3.902-10.794 5.809-16.647 5.809Z" fill="#090909"/><path d="M38.935 43.346c-.174 0-.347-.043-.52-.13L14.138 32.378c-.477-.173-.78-.65-.78-1.17 0-.52.303-.997.78-1.17L38.415 19.2c.346-.174.736-.13 1.083 0l23.41 10.837c.477.217.737.694.737 1.17 0 .478-.304.954-.737 1.171l-23.41 10.838c-.173.087-.39.13-.563.13ZM17.866 31.208l21.069 9.407 20.331-9.407L38.935 21.8l-21.069 9.407Zm44.478 13.829c-.737 0-1.3-.564-1.3-1.3v-8.194c0-.737.563-1.3 1.3-1.3.737 0 1.3.563 1.3 1.3v8.193c0 .694-.563 1.3-1.3 1.3Z" fill="#090909"/></g><defs><clipPath id="ba"><path fill="#fff" d="M0 0h76v76H0z"/></clipPath></defs></svg><svg viewBox="0 0 26 26" fill="none" id="chb" xmlns="http://www.w3.org/2000/svg"><g clip-path="url(#ca)"><path d="M13 26c7.18 0 13-5.82 13-13S20.18 0 13 0 0 5.82 0 13s5.82 13 13 13Z" fill="#FF9C08"/><path d="M7.117 13.84 11 17.5l7.883-8.702" stroke="#fff" stroke-width="2.5" stroke-linecap="round" stroke-linejoin="round"/></g><defs><clipPath id="ca"><path fill="#fff" d="M0 0h26v26H0z"/></clipPath></defs></svg><svg fill="none" viewBox="0 0 24 24" id="close" xmlns="http://www.w3.org/2000/svg"><path d="m7 7 10 10M7 17 17 7" stroke="#292929" stroke-linecap="round" stroke-linejoin="round" stroke-width="2"/></svg><svg fill="none" viewBox="0 0 172 172" id="education" xmlns="http://www.w3.org/2000/svg"><g clip-path="url(#ea)"><path d="M86 172c47.496 0 86-38.504 86-86S133.496 0 86 0 0 38.504 0 86s38.504 86 86 86Z" fill="#FFF3E0"/><mask id="eb" style="mask-type:alpha" maskUnits="userSpaceOnUse" x="0" y="0" width="172" height="172"><path d="M172 86c0 47.496-38.504 86-86 86S0 133.496 0 86 38.504 0 86 0s86 38.504 86 86Z" fill="#F0ECE8"/></mask><g mask="url(#eb)"><path d="M90.448 92.798c-2.753 1.032-5.85 1.032-8.688 0L38.583 76.112c-2.924-1.119-2.924-5.333 0-6.451l43.264-16.6c2.752-1.032 5.848-1.032 8.687 0l43.263 16.6c1.548.602 2.408 1.978 2.322 3.354v1.806L90.448 92.798Z" fill="#FF9C08"/><path d="M134.657 67.338 91.394 50.652a14.708 14.708 0 0 0-10.494 0L37.637 67.338a5.96 5.96 0 0 0-3.87 5.59 5.96 5.96 0 0 0 3.87 5.592l11.526 4.472v20.041c0 17.546 19.782 19.782 36.984 19.782s36.985-2.236 36.985-19.782V86.261c0-1.979-.947-3.87-2.581-4.989a6.138 6.138 0 0 0-5.59-.688l-25.46 9.805a9.27 9.27 0 0 1-6.794 0L39.529 73.703c-.43-.172-.516-.516-.516-.774s.086-.602.516-.774l43.264-16.6a9.27 9.27 0 0 1 6.794 0l43.264 16.6c.516.172.688.602.688.86V85.83c0 1.462 1.118 2.58 2.58 2.58s2.581-1.118 2.581-2.58V73.186a6.212 6.212 0 0 0-4.043-5.849ZM136.033 105.613c-1.462 0-2.58-1.118-2.58-2.58v-4.3c0-1.463 1.118-2.581 2.58-2.581s2.58 1.118 2.58 2.58v4.301c0 1.462-1.118 2.58-2.58 2.58Z" fill="#090909"/><path d="m50.46 81.253-3.33-1.322-.092 3.581-.511 19.871v.015l-.001.016c-.12 9.003 3.09 14.199 5.746 16.04 2.824 2.986 7.506 5.128 12.846 6.508 5.582 1.442 12.248 2.145 19.167 1.952h.025c10.08-.38 16.256-1.631 20.458-3.107 3.006-1.055 5.157-2.331 6.623-3.201.511-.303.938-.557 1.29-.735l.254-.129.219-.182c3.651-3.045 5.589-5.634 6.594-8.147.793-1.984.943-3.866 1.057-5.309.026-.319.049-.616.078-.888l.014-.133-.001-.134c-.007-2.721-.093-8.133-.167-12.81l-.061-3.913c-.058-3.846-3.961-6.52-7.574-5.137l-27.34 10.463a2.5 2.5 0 0 1-1.816-.01L50.46 81.251Z" fill="#fff" stroke="#090909" stroke-width="5"/></g></g><defs><clipPath id="ea"><path fill="#fff" d="M0 0h172v172H0z"/></clipPath></defs></svg><svg fill="none" viewBox="0 0 172 172" id="environmental" xmlns="http://www.w3.org/2000/svg"><g clip-path="url(#fa)"><path d="M86 172c47.496 0 86-38.504 86-86S133.496 0 86 0 0 38.504 0 86s38.504 86 86 86Z" fill="#FFF3E0"/><mask id="fb" style="mask-type:alpha" maskUnits="userSpaceOnUse" x="0" y="0" width="172" height="172"><path d="M86 172c47.496 0 86-38.504 86-86S133.496 0 86 0 0 38.504 0 86s38.504 86 86 86Z" fill="#F0ECE8"/></mask><g mask="url(#fb)"><path d="M107.59 66.318a21.556 21.556 0 0 0 2.54-10.158c0-11.957-9.629-21.586-21.375-21.586-11.745 0-21.374 9.629-21.374 21.586 0 .53 0 .952.105 1.481-11.005 3.704-18.835 14.18-18.835 26.56 0 15.45 12.486 28.041 27.83 28.041h23.067c13.016 0 23.491-10.581 23.491-23.703-.105-10.158-6.454-18.835-15.449-22.22Z" fill="#FF9C08"/><path d="M85.792 61.662c-1.799 0-3.174 1.376-3.174 3.175v14.39L70.132 72.88c-.424-.212-.953-.318-1.482-.318a3.05 3.05 0 0 0-2.751 1.693c-.74 1.587-.212 3.492 1.376 4.233l15.237 7.936v17.036c0 1.799 1.376 3.175 3.174 3.175 1.8 0 3.175-1.376 3.175-3.175v-1.904l15.343-7.725c1.587-.846 2.222-2.751 1.482-4.338-.529-1.059-1.588-1.8-2.752-1.8-.529 0-.952.107-1.481.424l-12.486 6.349V64.837c0-1.8-1.376-3.175-3.175-3.175Z" fill="#fff"/><path d="M99.337 115.522H76.269c-17.036 0-31.004-13.967-31.004-31.215 0-12.592 7.513-23.809 18.835-28.676.423-13.439 11.217-24.126 24.55-24.126 13.544 0 24.549 11.11 24.549 24.76 0 2.858-.53 5.82-1.482 8.466 8.677 4.55 14.285 13.756 14.285 23.808.106 14.921-11.851 26.983-26.665 26.983ZM88.649 37.854c-10.052 0-18.2 8.253-18.2 18.412v1.27c.106 1.48-.74 2.75-2.116 3.174-10.053 3.386-16.72 12.91-16.72 23.491 0 13.756 11.006 24.867 24.656 24.867h23.068c11.216 0 20.316-9.206 20.316-20.529 0-8.57-5.29-16.295-13.227-19.258-.846-.317-1.481-.952-1.904-1.799-.318-.846-.318-1.799.211-2.645a18.77 18.77 0 0 0 2.117-8.677c0-10.053-8.148-18.306-18.2-18.306Zm-2.963 102.641c-1.798 0-3.174-1.376-3.174-3.175v-16.401c0-1.799 1.376-3.174 3.174-3.174 1.8 0 3.175 1.375 3.175 3.174v16.401c0 1.799-1.376 3.175-3.175 3.175Z" fill="#090909"/></g></g><defs><clipPath id="fa"><path fill="#fff" d="M0 0h172v172H0z"/></clipPath></defs></svg><svg fill="none" viewBox="0 0 172 172" id="food" xmlns="http://www.w3.org/2000/svg"><g clip-path="url(#ga)"><path d="M86 172c47.496 0 86-38.504 86-86S133.496 0 86 0 0 38.504 0 86s38.504 86 86 86Z" fill="#FFF3E0"/><mask id="gb" style="mask-type:alpha" maskUnits="userSpaceOnUse" x="0" y="0" width="172" height="172"><path d="M86 172c47.496 0 86-38.504 86-86S133.496 0 86 0 0 38.504 0 86s38.504 86 86 86Z" fill="#F0ECE8"/></mask><g mask="url(#gb)"><path d="M123.983 71.447V58.539a18.178 18.178 0 0 0-18.222-18.222 18.179 18.179 0 0 0-18.222 18.222v12.908" fill="#F08200"/><path d="M79.187 105.613c14.677 0 26.574-11.897 26.574-26.574 0-14.677-11.897-26.574-26.574-26.574-14.677 0-26.574 11.897-26.574 26.574 0 14.677 11.897 26.574 26.574 26.574Z" fill="#FF9C08"/><path d="M131.576 70.688H40.465l6.757 54.059c.456 3.796 3.72 6.682 7.517 6.682h62.487c3.796 0 7.061-2.886 7.517-6.682l6.833-54.06Z" fill="#fff"/><path d="M63.242 118.521c-1.139 0-2.125-.835-2.277-1.974l-3.797-30.37c-.152-1.215.76-2.354 1.974-2.506 1.215-.152 2.354.76 2.506 1.974l3.796 30.371c.152 1.214-.759 2.353-1.974 2.505h-.228ZM78.428 118.521c-1.291 0-2.278-.987-2.278-2.278v-30.37c0-1.291.987-2.278 2.278-2.278 1.29 0 2.278.987 2.278 2.278v30.37c0 1.291-.988 2.278-2.278 2.278ZM93.613 118.521c-1.29 0-2.278-.987-2.278-2.278v-30.37c0-1.291.987-2.278 2.278-2.278 1.29 0 2.278.987 2.278 2.278v30.37c0 1.291-.987 2.278-2.278 2.278ZM108.798 118.521h-.304c-1.214-.152-2.125-1.291-1.974-2.505l3.797-30.371c.152-1.215 1.29-2.126 2.505-1.974 1.215.152 2.126 1.29 1.974 2.505L111 116.547c-.076 1.139-1.063 1.974-2.202 1.974Z" fill="#090909"/><path d="M59.446 59.298h-6.074a12.897 12.897 0 0 1-12.907-12.907v-6.074h6.074c7.137 0 12.907 5.77 12.907 12.907V59.3Z" fill="#FF9C08"/><path d="M133.247 69.169c-.456-.456-1.063-.76-1.671-.76h-5.315v-9.87c0-11.313-9.187-20.5-20.5-20.5-5.011 0-9.87 1.822-13.59 5.163-.912.835-.988 2.278-.153 3.189.836.911 2.278.987 3.19.152a16.073 16.073 0 0 1 10.553-3.948c6.91 0 12.832 4.48 15.034 10.63l-9.339 7.82c-.987.835-1.063 2.277-.304 3.189.456.531 1.063.835 1.746.835.532 0 1.063-.152 1.443-.532l7.289-6.15V68.41H56.56c4.101-8.351 12.453-13.666 21.868-13.666 1.29 0 2.278-.987 2.278-2.278 0-1.29-.987-2.278-2.278-2.278-6.15 0-11.92 1.898-16.704 5.315v-2.278c0-8.352-6.833-15.185-15.185-15.185h-6.074c-1.291 0-2.278.987-2.278 2.278v6.074c0 8.352 6.833 15.185 15.185 15.185h2.05c-1.518 2.05-2.885 4.328-3.872 6.834H40.465c-.684 0-1.291.303-1.67.759-.38.455-.684 1.139-.608 1.822l6.757 54.06c.608 4.935 4.86 8.655 9.795 8.655h62.487c4.935 0 9.187-3.72 9.795-8.655l6.757-54.06c.152-.683-.076-1.29-.531-1.822ZM42.742 46.39v-3.796h3.797c5.846 0 10.63 4.783 10.63 10.63v3.796h-3.797c-5.846 0-10.63-4.784-10.63-10.63Zm79.799 78.128c-.304 2.658-2.582 4.632-5.239 4.632H54.739c-2.658 0-4.935-1.974-5.24-4.632l-6.453-51.554h85.949l-6.454 51.554Z" fill="#090909"/></g></g><defs><clipPath id="ga"><path fill="#fff" d="M0 0h172v172H0z"/></clipPath></defs></svg><svg fill="none" viewBox="0 0 172 172" id="health" xmlns="http://www.w3.org/2000/svg"><g clip-path="url(#ha)"><path d="M86 172c47.496 0 86-38.504 86-86S133.496 0 86 0 0 38.504 0 86s38.504 86 86 86Z" fill="#FFF3E0"/><mask id="hb" style="mask-type:alpha" maskUnits="userSpaceOnUse" x="0" y="0" width="172" height="172"><path d="M86 172c47.496 0 86-38.504 86-86S133.496 0 86 0 0 38.504 0 86s38.504 86 86 86Z" fill="#F0ECE8"/></mask><g mask="url(#hb)"><path d="M124.964 128.835H46.448c-4.798 0-8.724-3.926-8.724-8.724V67.766c0-4.798 3.926-8.724 8.724-8.724h78.516c4.798 0 8.724 3.926 8.724 8.724v52.345c0 4.798-3.926 8.724-8.724 8.724Z" fill="#FF9C08"/><path d="M124.964 131.452H46.448a11.319 11.319 0 0 1-11.341-11.342V67.766c0-6.28 5.06-11.34 11.34-11.34h78.517c6.281 0 11.341 5.06 11.341 11.34v52.344c0 6.282-5.06 11.342-11.341 11.342ZM46.448 61.66a6.07 6.07 0 0 0-6.107 6.106v52.344a6.069 6.069 0 0 0 6.107 6.107h78.516a6.07 6.07 0 0 0 6.107-6.107V67.766a6.07 6.07 0 0 0-6.107-6.106H46.448Z" fill="#090909"/><path d="M103.154 61.66c-1.483 0-2.617-1.134-2.617-2.618 0-7.677-6.282-13.958-13.959-13.958h-1.745c-4.449 0-8.462 2.006-11.166 5.583-.873 1.134-2.53 1.396-3.665.524-1.134-.873-1.395-2.53-.523-3.664 3.664-4.886 9.248-7.677 15.354-7.677h1.745c10.556 0 19.193 8.636 19.193 19.192 0 1.483-1.134 2.618-2.617 2.618Z" fill="#090909"/><path d="M101.409 87.832h-9.596v-9.597c0-1.483-1.134-2.617-2.618-2.617h-6.979c-1.483 0-2.617 1.134-2.617 2.617v9.597h-9.596c-1.483 0-2.618 1.134-2.618 2.617v6.98c0 1.482 1.135 2.616 2.618 2.616h9.596v9.597c0 1.483 1.134 2.617 2.617 2.617h6.98c1.483 0 2.617-1.134 2.617-2.617v-9.597h9.596c1.483 0 2.617-1.134 2.617-2.617V90.45c0-1.483-1.134-2.617-2.617-2.617Z" fill="#fff"/></g></g><defs><clipPath id="ha"><path fill="#fff" d="M0 0h172v172H0z"/></clipPath></defs></svg><svg fill="none" viewBox="0 0 76 76" id="heart" xmlns="http://www.w3.org/2000/svg"><g clip-path="url(#ia)"><path d="M38 76c20.987 0 38-17.013 38-38S58.987 0 38 0 0 17.013 0 38s17.013 38 38 38Z" fill="#FFF3E0"/><path d="M45.295 22.326H45.281a11.181 11.181 0 0 0-3.051.429c4.603 1.322 8 5.41 8 10.334 0 3.36-1.628 4.672-4.095 8.295L37 53.144l15.33-11.76c2.468-1.995 4.095-4.935 4.095-8.295 0-5.985-5.04-10.763-11.13-10.763Z" fill="#FF9C08"/><path d="M28.705 22.326c3.36 0 6.352 1.417 8.295 3.675a11.223 11.223 0 0 1 8.295-3.675c6.09 0 11.13 4.777 11.13 10.763 0 3.36-1.575 6.352-4.095 8.295L37 53.144l-15.067-11.55c-2.678-1.995-4.358-5.093-4.358-8.505 0-5.933 4.935-10.763 11.13-10.763Z" fill="#FF9C08"/><path d="M28.705 25.528c-4.305 0-7.77 3.413-7.77 7.56 0 .892.682 1.575 1.575 1.575.892 0 1.575-.683 1.575-1.575 0-2.415 2.1-4.41 4.62-4.41.892 0 1.575-.682 1.575-1.575 0-.892-.683-1.575-1.575-1.575Z" fill="#fff"/><path d="M37 54.718c-.315 0-.682-.105-.945-.315l-15.067-11.55C17.838 40.543 16 36.973 16 33.09c0-6.825 5.723-12.338 12.705-12.338 3.098 0 6.09 1.102 8.295 3.045a12.921 12.921 0 0 1 8.295-3.045C52.278 20.751 58 26.263 58 33.089c0 3.675-1.68 7.192-4.672 9.555l-15.383 11.76c-.263.21-.63.314-.945.314Zm-8.295-30.817c-5.25 0-9.555 4.148-9.555 9.188 0 2.887 1.365 5.512 3.728 7.245L37 51.2l14.385-11.025c2.205-1.733 3.465-4.305 3.465-7.035 0-5.092-4.305-9.188-9.555-9.188a9.699 9.699 0 0 0-7.14 3.15c-.315.316-.735.525-1.155.525-.472 0-.892-.21-1.155-.524-1.785-2.048-4.357-3.203-7.14-3.203Z" fill="#090909"/></g><defs><clipPath id="ia"><path fill="#fff" d="M0 0h76v76H0z"/></clipPath></defs></svg><svg fill="none" viewBox="0 0 76 76" id="hend" xmlns="http://www.w3.org/2000/svg"><g clip-path="url(#ja)"><path d="M38 76c20.987 0 38-17.013 38-38S58.987 0 38 0 0 17.013 0 38s17.013 38 38 38Z" fill="#FFF3E0"/><path d="M40.445 38.262a2.732 2.732 0 0 1-3.892 0l-9.7-9.84a6.56 6.56 0 0 1-1.291-7.72 7 7 0 0 1 11.037-1.738l1.9 1.847 1.903-1.847a7 7 0 0 1 11.037 1.738 6.56 6.56 0 0 1-1.292 7.728l-9.702 9.832Z" fill="#FF9C08" stroke="#090909" stroke-width="3" stroke-linecap="round" stroke-linejoin="round"/><path d="m19.186 49.93 13.071-.266.31 9.491s-2.182-.98-4.488-.98c-2.306 0-4.849 1.29-4.849 1.29l-4.044-9.535Z" fill="#fff"/><path d="m23.466 58-3.67-4.339A8.2 8.2 0 0 1 18 48.54v-9.424a2.734 2.734 0 0 1 5.466 0v6.833" fill="#fff"/><path d="m23.466 58-3.67-4.339A8.2 8.2 0 0 1 18 48.54v-9.424a2.734 2.734 0 0 1 5.466 0v6.833" stroke="#090909" stroke-width="3" stroke-linecap="round" stroke-linejoin="round"/><path d="M31.666 58v-5.467a8.2 8.2 0 0 0-1.38-4.555l-2.08-3.116a2.55 2.55 0 0 0-4.466 2.453l2.463 4.1" fill="#fff"/><path d="M31.666 58v-5.467a8.2 8.2 0 0 0-1.38-4.555l-2.08-3.116a2.55 2.55 0 0 0-4.466 2.453l2.463 4.1" stroke="#090909" stroke-width="3" stroke-linecap="round" stroke-linejoin="round"/><path d="m53.532 58 3.67-4.339A8.2 8.2 0 0 0 59 48.54v-9.424a2.733 2.733 0 1 0-5.467 0v6.833" fill="#fff"/><path d="m53.532 58 3.67-4.339A8.2 8.2 0 0 0 59 48.54v-9.424a2.733 2.733 0 1 0-5.467 0v6.833" stroke="#090909" stroke-width="3" stroke-linecap="round" stroke-linejoin="round"/><path d="M45.333 58v-5.467a8.2 8.2 0 0 1 1.379-4.555l2.08-3.12a2.552 2.552 0 0 1 4.654.657c.16.601.095 1.24-.183 1.796l-2.464 4.1" fill="#fff"/><path d="M45.333 58v-5.467a8.2 8.2 0 0 1 1.379-4.555l2.08-3.12a2.552 2.552 0 0 1 4.654.657c.16.601.095 1.24-.183 1.796l-2.464 4.1" stroke="#090909" stroke-width="3" stroke-linecap="round" stroke-linejoin="round"/></g><defs><clipPath id="ja"><path fill="#fff" d="M0 0h76v76H0z"/></clipPath></defs></svg><svg fill="none" viewBox="0 0 172 172" id="house" xmlns="http://www.w3.org/2000/svg"><g clip-path="url(#ka)"><path d="M86 172c47.496 0 86-38.504 86-86S133.496 0 86 0 0 38.504 0 86s38.504 86 86 86Z" fill="#FFF3E0"/><mask id="kb" style="mask-type:alpha" maskUnits="userSpaceOnUse" x="0" y="0" width="172" height="172"><path d="M86 172c47.496 0 86-38.504 86-86S133.496 0 86 0 0 38.504 0 86s38.504 86 86 86Z" fill="#F0ECE8"/></mask><g mask="url(#kb)"><path d="M123.269 82.14v53.647H48.741V82.14l37.264-38.656 37.264 38.656Z" fill="#fff"/><path d="M60.627 135.788V93.812h20.666v41.976H60.627ZM86.005 35.132 36.32 85.46l6.317 6.318 43.368-45.081 43.367 45.08 6.318-6.317-12.421-12.528V43.485h-12.422v16.811L86.005 35.132Z" fill="#FF9C08"/><path d="M69.407 79.25c3.32-18.633 29.769-18.633 33.088 0H69.407Z" fill="#FF9C08"/><path d="M123.269 139H48.741c-1.82 0-3.213-1.392-3.213-3.212v-42.94h-5.032a3.322 3.322 0 0 1-2.356-.963l-4.176-4.177c-1.285-1.284-1.285-3.212 0-4.497l49.685-50.328c1.178-1.178 3.32-1.178 4.604 0l19.275 19.596v-8.995c0-1.82 1.392-3.212 3.212-3.212h12.422c1.82 0 3.212 1.392 3.212 3.212V71.54l11.458 11.672c1.285 1.285 1.285 3.213 0 4.498l-4.177 4.176c-.642.642-1.392.963-2.248.963h-5.033v42.94c.107 1.82-1.392 3.212-3.105 3.212Zm-71.316-6.425h67.996V89.636c0-.857.321-1.713.964-2.249.642-.642 1.499-.963 2.249-.963h6.96l.964-.964-10.173-10.28c-.643-.642-.964-1.392-.964-2.249V46.697h-5.996v13.599c0 1.285-.75 2.463-2.035 2.998-1.178.536-2.57.214-3.533-.75l-22.38-22.807L40.924 85.46l.964.964h6.96c.857 0 1.713.32 2.249.963.642.643.963 1.392.963 2.249v42.939h-.107Z" fill="#090909"/><path d="M90.716 93.813h20.667V114.8H90.716V93.813Z" fill="#FF9C08"/><path d="M70.906 100.13a4.177 4.177 0 1 0 0 8.354 4.177 4.177 0 0 0 0-8.354Z" fill="#fff"/></g></g><defs><clipPath id="ka"><path fill="#fff" d="M0 0h172v172H0z"/></clipPath></defs></svg><svg viewBox="0 0 129 129" id="leftarrow" xmlns="http://www.w3.org/2000/svg"><path d="M88.6 121.3c.8.8 1.8 1.2 2.9 1.2s2.1-.4 2.9-1.2c1.6-1.6 1.6-4.2 0-5.8l-51-51 51-51c1.6-1.6 1.6-4.2 0-5.8s-4.2-1.6-5.8 0l-54 53.9c-1.6 1.6-1.6 4.2 0 5.8l54 53.9z"/></svg><svg viewBox="0 0 43 38" fill="none" id="logo" xmlns="http://www.w3.org/2000/svg"><path d="M41.174 7.52C39.294 3.39 35.401.583 31.057.159c-3.522-.318-6.991.583-9.772 2.57-.027.026-.053.052-.08.052-.026-.026-.053-.053-.08-.053C18.32.741 14.85-.16 11.354.185 6.983.582 3.117 3.389 1.21 7.52c-2.04 4.423-1.483 9.508 1.536 14.301 4.396 6.992 11.918 11.97 17.453 14.91l.874.424v.027h.053l1.06-.424c5.534-2.94 13.082-7.919 17.452-14.91 3.02-4.82 3.576-9.905 1.536-14.328Zm-5.138 11.786c-3.628 5.8-9.931 10.117-14.884 12.871v-.079C16.2 29.37 9.976 25.053 6.374 19.306 4.23 15.89 3.805 12.42 5.13 9.507c1.218-2.648 3.813-4.529 6.594-4.794 2.304-.211 4.476.292 6.277 1.325a13.347 13.347 0 0 0-2.172 5.032c-.715 3.363-.159 6.647 1.43 8.74 1.033 1.35 2.437 2.092 3.92 2.118h.053c1.483 0 2.887-.768 3.92-2.119 1.615-2.092 2.145-5.376 1.43-8.74a13.552 13.552 0 0 0-1.325-3.628 9.15 9.15 0 0 0-3.337 3.178c.186.45.318.954.424 1.457.503 2.41 0 4.158-.582 4.9-.08.132-.318.397-.557.397-.238 0-.45-.292-.556-.397-.582-.768-1.086-2.516-.582-4.9.98-4.74 5.455-7.813 10.593-7.336 2.807.265 5.403 2.145 6.595 4.794 1.35 2.886.9 6.356-1.219 9.772Z" fill="#FF9C08"/></svg><svg fill="none" viewBox="0 0 172 172" id="love" xmlns="http://www.w3.org/2000/svg"><g clip-path="url(#na)"><path d="M86 172c47.496 0 86-38.504 86-86S133.496 0 86 0 0 38.504 0 86s38.504 86 86 86Z" fill="#FFF3E0"/><mask id="nb" style="mask-type:alpha" maskUnits="userSpaceOnUse" x="0" y="0" width="172" height="172"><path d="M86 172c47.496 0 86-38.504 86-86S133.496 0 86 0 0 38.504 0 86s38.504 86 86 86Z" fill="#F0ECE8"/></mask><g mask="url(#nb)"><path d="M105.368 53.676h-.033a27.065 27.065 0 0 0-4.214.348c-.988.163-1.958.382-2.907.653 10.744 3.085 18.671 12.625 18.671 24.116 0 7.841-3.8 10.904-9.557 19.36l-21.319 27.444 35.777-27.445c5.758-4.656 9.556-11.518 9.556-19.36 0-13.967-11.762-25.116-25.974-25.116Z" fill="#FF9C08"/><path d="M86.047 58.678c-4.965-4.684-11.844-7.502-19.397-7.502-15.767 0-28.474 12.321-28.474 27.617 0 8.801 4.332 16.748 11.161 21.843l35.151 26.945 1.522 1.166 1.52-1.167 35.777-27.444.005-.003c6.47-4.988 10.53-12.692 10.53-21.34 0-15.441-12.974-27.617-28.474-27.617a28.688 28.688 0 0 0-19.321 7.502Z" fill="#FF9C08" stroke="#090909" stroke-width="5"/><path d="M66.65 61.15c-10.046 0-18.133 7.963-18.133 17.641 0 2.083 1.593 3.676 3.676 3.676s3.675-1.593 3.675-3.676c0-5.636 4.901-10.29 10.782-10.29 2.083 0 3.676-1.593 3.676-3.676s-1.593-3.676-3.676-3.676Z" fill="#fff"/></g></g><defs><clipPath id="na"><path fill="#fff" d="M0 0h172v172H0z"/></clipPath></defs></svg><svg viewBox="0 0 76 76" style="enable-background:new 0 0 76 76" xml:space="preserve" id="menu" xmlns="http://www.w3.org/2000/svg"><path d="M38 0C17 0 0 17 0 38s17 38 38 38 38-17 38-38S59 0 38 0zm0 72C19.2 72 4 56.8 4 38S19.2 4 38 4s34 15.2 34 34-15.2 34-34 34zm19.5-34c0 1.1-.9 2-2 2h-35c-1.1 0-2-.9-2-2s.9-2 2-2h35c1.1 0 2 .9 2 2zm0 12c0 1.1-.9 2-2 2h-35c-1.1 0-2-.9-2-2s.9-2 2-2h35c1.1 0 2 .9 2 2zm0-24c0 1.1-.9 2-2 2h-35c-1.1 0-2-.9-2-2s.9-2 2-2h35c1.1 0 2 .9 2 2z"/></svg><svg viewBox="0 0 129 129" id="rightarrow" xmlns="http://www.w3.org/2000/svg"><path d="M40.4 121.3c-.8.8-1.8 1.2-2.9 1.2s-2.1-.4-2.9-1.2c-1.6-1.6-1.6-4.2 0-5.8l51-51-51-51c-1.6-1.6-1.6-4.2 0-5.8 1.6-1.6 4.2-1.6 5.8 0l53.9 53.9c1.6 1.6 1.6 4.2 0 5.8l-53.9 53.9z"/></svg><svg viewBox="0 0 406 384" fill="none" id="spot1" xmlns="http://www.w3.org/2000/svg"><path opacity=".1" fill-rule="evenodd" clip-rule="evenodd" d="M70.643-279.871c104.758-3.804 188.985 76.961 252.036 160.711 60.44 80.28 99.481 178.166 76.789 276.059-22.609 97.532-96.981 176.278-190.141 212.939-85.698 33.725-175.852 1.329-260.162-35.732-89.801-39.474-194.752-79.48-218.476-174.667-24.024-96.392 49.076-182.525 109.872-261.089 62.464-80.72 128.086-174.516 230.082-178.221Z" fill="#fff"/></svg><svg viewBox="0 0 442 384" fill="none" id="spot2" xmlns="http://www.w3.org/2000/svg"><path opacity=".1" fill-rule="evenodd" clip-rule="evenodd" d="M344.643.13c104.758-3.805 188.985 76.96 252.036 160.71 60.44 80.28 99.481 178.166 76.789 276.059-22.609 97.532-96.981 176.278-190.141 212.939-85.698 33.725-175.852 1.329-260.162-35.732-89.801-39.474-194.752-79.48-218.476-174.667-24.024-96.392 49.076-182.525 109.872-261.089C177.025 97.63 242.647 3.834 344.643.13Z" fill="#fff"/></svg></svg>